# xmcd
#
# Track frame offsets:
#	150
#	12418
#	24569
#	33560
#	45690
#	55578
#	65923
#	76052
#	91253
#	100879
#	113213
#	123045
#	134394
#	142980
#	154108
#	161926
#	174632
#	183088
#	193536
#	205254
#	217462
#	228869
#	239473
#	248577
#	258148
#
# Disc length: 3562 seconds
#
# Revision: 1
# Processed by: cddbd v1.5.2PL0 Copyright (c) Steve Scherf et al.
# Submitted via: audiograbber 1.83.01
#
DISCID=570de819
DTITLE=The Shirelles - Will You Love Me Tomorrow - The Top Rank Records Story (
DTITLE=CD 1)
DYEAR=2013
DGENRE=Soul
TTITLE0=Will You Love Me Tomorrow
TTITLE1=Soldier Boy
TTITLE2=Dedicated To The One I Love
TTITLE3=Baby It's You
TTITLE4=Love Is A Swingin' Thing
TTITLE5=I Don't Want To Cry
TTITLE6=It's Love That Really Counts (In The Long Run)
TTITLE7=Blue Holiday
TTITLE8=Mama Said
TTITLE9=Everybody Loves A Lover
TTITLE10=Boys
TTITLE11=Putty In Your Hands
TTITLE12=I'll Do The Same Thing Too
TTITLE13=What A Sweet Thing That Was
TTITLE14=Look A Here Baby
TTITLE15=My Willow Tree
TTITLE16=Please Be My Boyfriend
TTITLE17=You Don't Want My Love
TTITLE18=A Teardrop And A Lollipop
TTITLE19=The Things I Want To Hear  (Pretty Words)
TTITLE20=Tonight At The Prom
TTITLE21=My Love is A Charm
TTITLE22=Twenty-One
TTITLE23=Without A Word Of Complaint
TTITLE24=Slop Time
EXTD=
EXTT0=
EXTT1=
EXTT2=
EXTT3=
EXTT4=
EXTT5=
EXTT6=
EXTT7=
EXTT8=
EXTT9=
EXTT10=
EXTT11=
EXTT12=
EXTT13=
EXTT14=
EXTT15=
EXTT16=
EXTT17=
EXTT18=
EXTT19=
EXTT20=
EXTT21=
EXTT22=
EXTT23=
EXTT24=
PLAYORDER=
